<?xml version="1.0" encoding="UTF-8" standalone="no"?>
<!-- Created with Inkscape (http://www.inkscape.org/) -->

<svg
   xmlns:osb="http://www.openswatchbook.org/uri/2009/osb"
   xmlns:dc="http://purl.org/dc/elements/1.1/"
   xmlns:cc="http://creativecommons.org/ns#"
   xmlns:rdf="http://www.w3.org/1999/02/22-rdf-syntax-ns#"
   xmlns:svg="http://www.w3.org/2000/svg"
   xmlns="http://www.w3.org/2000/svg"
   xmlns:sodipodi="http://sodipodi.sourceforge.net/DTD/sodipodi-0.dtd"
   xmlns:inkscape="http://www.inkscape.org/namespaces/inkscape"
   id="svg2"
   version="1.1"
   inkscape:version="0.91 r13725"
   xml:space="preserve"
   width="482.5"
   height="478.75"
   viewBox="0 0 482.5 478.75"
   sodipodi:docname="brittle-fad-modified.svg"><metadata
     id="metadata8"><rdf:RDF><cc:Work
         rdf:about=""><dc:format>image/svg+xml</dc:format><dc:type
           rdf:resource="http://purl.org/dc/dcmitype/StillImage" /><dc:title></dc:title></cc:Work></rdf:RDF></metadata><defs
     id="defs6"><linearGradient
       id="linearGradient5730"
       osb:paint="solid"><stop
         style="stop-color:#ff0000;stop-opacity:1;"
         offset="0"
         id="stop5732" /></linearGradient></defs><sodipodi:namedview
     pagecolor="#ffffff"
     bordercolor="#666666"
     borderopacity="1"
     objecttolerance="10"
     gridtolerance="10"
     guidetolerance="10"
     inkscape:pageopacity="0"
     inkscape:pageshadow="2"
     inkscape:window-width="1658"
     inkscape:window-height="1092"
     id="namedview4"
     showgrid="false"
     inkscape:zoom="1.8590078"
     inkscape:cx="163.2514"
     inkscape:cy="239.375"
     inkscape:window-x="70"
     inkscape:window-y="0"
     inkscape:window-maximized="0"
     inkscape:current-layer="g10" /><g
     id="g10"
     inkscape:groupmode="layer"
     inkscape:label="ink_ext_XXXXXX"
     transform="matrix(1.25,0,0,-1.25,0,478.75)"><g
       id="g12"
       transform="scale(0.1,0.1)"><path
         d="m 0,0 4770,0 0,4100 L 0,4100 0,0 Z"
         style="fill:#ffffff;fill-opacity:1;fill-rule:nonzero;stroke:none"
         id="path14"
         inkscape:connector-curvature="0" /><path
         d="m 0,0 4770,0 0,4100 L 0,4100 0,0 Z"
         style="fill:#ffffff;fill-opacity:1;fill-rule:nonzero;stroke:none"
         id="path16"
         inkscape:connector-curvature="0" /><path
         d="m 355,360 3430,0 0,3430 -3430,0 0,-3430 z"
         style="fill:#ffffff;fill-opacity:1;fill-rule:nonzero;stroke:none"
         id="path18"
         inkscape:connector-curvature="0" /><path
         d="m 355,360 0,3430"
         style="fill:none;stroke:#dfdfdf;stroke-width:5;stroke-linecap:butt;stroke-linejoin:round;stroke-miterlimit:10;stroke-dasharray:none;stroke-opacity:1"
         id="path20"
         inkscape:connector-curvature="0" /><path
         d="m 926.672,360 0,3430"
         style="fill:none;stroke:#dfdfdf;stroke-width:5;stroke-linecap:butt;stroke-linejoin:round;stroke-miterlimit:10;stroke-dasharray:none;stroke-opacity:1"
         id="path22"
         inkscape:connector-curvature="0" /><path
         d="m 1498.33,360 0,3430"
         style="fill:none;stroke:#dfdfdf;stroke-width:5;stroke-linecap:butt;stroke-linejoin:round;stroke-miterlimit:10;stroke-dasharray:none;stroke-opacity:1"
         id="path24"
         inkscape:connector-curvature="0" /><path
         d="m 2070,360 0,3430"
         style="fill:none;stroke:#dfdfdf;stroke-width:5;stroke-linecap:butt;stroke-linejoin:round;stroke-miterlimit:10;stroke-dasharray:none;stroke-opacity:1"
         id="path26"
         inkscape:connector-curvature="0" /><path
         d="m 2641.67,360 0,3430"
         style="fill:none;stroke:#dfdfdf;stroke-width:5;stroke-linecap:butt;stroke-linejoin:round;stroke-miterlimit:10;stroke-dasharray:none;stroke-opacity:1"
         id="path28"
         inkscape:connector-curvature="0" /><path
         d="m 3213.33,360 0,3430"
         style="fill:none;stroke:#dfdfdf;stroke-width:5;stroke-linecap:butt;stroke-linejoin:round;stroke-miterlimit:10;stroke-dasharray:none;stroke-opacity:1"
         id="path30"
         inkscape:connector-curvature="0" /><path
         d="m 3785,360 0,3430"
         style="fill:none;stroke:#dfdfdf;stroke-width:5;stroke-linecap:butt;stroke-linejoin:round;stroke-miterlimit:10;stroke-dasharray:none;stroke-opacity:1"
         id="path32"
         inkscape:connector-curvature="0" /><path
         d="M 3785,360 355,360"
         style="fill:none;stroke:#dfdfdf;stroke-width:5;stroke-linecap:butt;stroke-linejoin:round;stroke-miterlimit:10;stroke-dasharray:none;stroke-opacity:1"
         id="path34"
         inkscape:connector-curvature="0" /><path
         d="m 3785,931.672 -3430,0"
         style="fill:none;stroke:#dfdfdf;stroke-width:5;stroke-linecap:butt;stroke-linejoin:round;stroke-miterlimit:10;stroke-dasharray:none;stroke-opacity:1"
         id="path36"
         inkscape:connector-curvature="0" /><path
         d="m 3785,1503.33 -3430,0"
         style="fill:none;stroke:#dfdfdf;stroke-width:5;stroke-linecap:butt;stroke-linejoin:round;stroke-miterlimit:10;stroke-dasharray:none;stroke-opacity:1"
         id="path38"
         inkscape:connector-curvature="0" /><path
         d="m 3785,2075 -3430,0"
         style="fill:none;stroke:#dfdfdf;stroke-width:5;stroke-linecap:butt;stroke-linejoin:round;stroke-miterlimit:10;stroke-dasharray:none;stroke-opacity:1"
         id="path40"
         inkscape:connector-curvature="0" /><path
         d="m 3785,2646.67 -3430,0"
         style="fill:none;stroke:#dfdfdf;stroke-width:5;stroke-linecap:butt;stroke-linejoin:round;stroke-miterlimit:10;stroke-dasharray:none;stroke-opacity:1"
         id="path42"
         inkscape:connector-curvature="0" /><path
         d="m 3785,3218.33 -3430,0"
         style="fill:none;stroke:#dfdfdf;stroke-width:5;stroke-linecap:butt;stroke-linejoin:round;stroke-miterlimit:10;stroke-dasharray:none;stroke-opacity:1"
         id="path44"
         inkscape:connector-curvature="0" /><path
         d="m 3785,3790 -3430,0"
         style="fill:none;stroke:#dfdfdf;stroke-width:5;stroke-linecap:butt;stroke-linejoin:round;stroke-miterlimit:10;stroke-dasharray:none;stroke-opacity:1"
         id="path46"
         inkscape:connector-curvature="0" /><path
         d="m 355,360 3430,0"
         style="fill:none;stroke:#262626;stroke-width:5;stroke-linecap:square;stroke-linejoin:round;stroke-miterlimit:10;stroke-dasharray:none;stroke-opacity:1"
         id="path48"
         inkscape:connector-curvature="0" /><path
         d="m 355,3790 3430,0"
         style="fill:none;stroke:#262626;stroke-width:5;stroke-linecap:square;stroke-linejoin:round;stroke-miterlimit:10;stroke-dasharray:none;stroke-opacity:1"
         id="path50"
         inkscape:connector-curvature="0" /><path
         d="m 355,360 0,34.301"
         style="fill:none;stroke:#262626;stroke-width:5;stroke-linecap:square;stroke-linejoin:round;stroke-miterlimit:10;stroke-dasharray:none;stroke-opacity:1"
         id="path52"
         inkscape:connector-curvature="0" /><path
         d="m 926.672,360 0,34.301"
         style="fill:none;stroke:#262626;stroke-width:5;stroke-linecap:square;stroke-linejoin:round;stroke-miterlimit:10;stroke-dasharray:none;stroke-opacity:1"
         id="path54"
         inkscape:connector-curvature="0" /><path
         d="m 1498.33,360 0,34.301"
         style="fill:none;stroke:#262626;stroke-width:5;stroke-linecap:square;stroke-linejoin:round;stroke-miterlimit:10;stroke-dasharray:none;stroke-opacity:1"
         id="path56"
         inkscape:connector-curvature="0" /><path
         d="m 2070,360 0,34.301"
         style="fill:none;stroke:#262626;stroke-width:5;stroke-linecap:square;stroke-linejoin:round;stroke-miterlimit:10;stroke-dasharray:none;stroke-opacity:1"
         id="path58"
         inkscape:connector-curvature="0" /><path
         d="m 2641.67,360 0,34.301"
         style="fill:none;stroke:#262626;stroke-width:5;stroke-linecap:square;stroke-linejoin:round;stroke-miterlimit:10;stroke-dasharray:none;stroke-opacity:1"
         id="path60"
         inkscape:connector-curvature="0" /><path
         d="m 3213.33,360 0,34.301"
         style="fill:none;stroke:#262626;stroke-width:5;stroke-linecap:square;stroke-linejoin:round;stroke-miterlimit:10;stroke-dasharray:none;stroke-opacity:1"
         id="path62"
         inkscape:connector-curvature="0" /><path
         d="m 3785,360 0,34.301"
         style="fill:none;stroke:#262626;stroke-width:5;stroke-linecap:square;stroke-linejoin:round;stroke-miterlimit:10;stroke-dasharray:none;stroke-opacity:1"
         id="path64"
         inkscape:connector-curvature="0" /><path
         d="m 355,3790 0,-34.3"
         style="fill:none;stroke:#262626;stroke-width:5;stroke-linecap:square;stroke-linejoin:round;stroke-miterlimit:10;stroke-dasharray:none;stroke-opacity:1"
         id="path66"
         inkscape:connector-curvature="0" /><path
         d="m 926.672,3790 0,-34.3"
         style="fill:none;stroke:#262626;stroke-width:5;stroke-linecap:square;stroke-linejoin:round;stroke-miterlimit:10;stroke-dasharray:none;stroke-opacity:1"
         id="path68"
         inkscape:connector-curvature="0" /><path
         d="m 1498.33,3790 0,-34.3"
         style="fill:none;stroke:#262626;stroke-width:5;stroke-linecap:square;stroke-linejoin:round;stroke-miterlimit:10;stroke-dasharray:none;stroke-opacity:1"
         id="path70"
         inkscape:connector-curvature="0" /><path
         d="m 2070,3790 0,-34.3"
         style="fill:none;stroke:#262626;stroke-width:5;stroke-linecap:square;stroke-linejoin:round;stroke-miterlimit:10;stroke-dasharray:none;stroke-opacity:1"
         id="path72"
         inkscape:connector-curvature="0" /><path
         d="m 2641.67,3790 0,-34.3"
         style="fill:none;stroke:#262626;stroke-width:5;stroke-linecap:square;stroke-linejoin:round;stroke-miterlimit:10;stroke-dasharray:none;stroke-opacity:1"
         id="path74"
         inkscape:connector-curvature="0" /><path
         d="m 3213.33,3790 0,-34.3"
         style="fill:none;stroke:#262626;stroke-width:5;stroke-linecap:square;stroke-linejoin:round;stroke-miterlimit:10;stroke-dasharray:none;stroke-opacity:1"
         id="path76"
         inkscape:connector-curvature="0" /><path
         d="m 3785,3790 0,-34.3"
         style="fill:none;stroke:#262626;stroke-width:5;stroke-linecap:square;stroke-linejoin:round;stroke-miterlimit:10;stroke-dasharray:none;stroke-opacity:1"
         id="path78"
         inkscape:connector-curvature="0" /><g
         id="g80"
         transform="scale(10,10)"><text
           transform="matrix(1,0,0,-1,32.5,22)"
           style="font-variant:normal;font-weight:normal;font-size:10px;font-family:Helvetica;-inkscape-font-specification:Helvetica;writing-mode:lr-tb;fill:#262626;fill-opacity:1;fill-rule:nonzero;stroke:none"
           id="text82"><tspan
             x="0 53.166801 58.726799 61.506802 110.3332 115.8932 118.6732 167.5 173.06 175.84 224.66679 230.22681 233.00681 285.83319 339 344.56 347.34"
             y="0"
             sodipodi:role="line"
             id="tspan84">00.20.40.60.811.2</tspan></text>
</g><path
         d="m 1970.63,68.75 c -3.33,0 -6.25,0.7813 -8.75,2.3398 -2.5,1.5665 -4.45,3.6758 -5.86,6.3321 -1.41,2.6562 -2.11,5.5469 -2.11,8.6679 0,3.4415 0.78,7.0352 2.34,10.7891 1.56,3.7461 3.67,7.1841 6.33,10.3121 2.65,3.125 5.67,5.625 9.06,7.5 3.39,1.872 6.85,2.809 10.39,2.809 l 27.66,0 c 0.73,0 1.38,-0.262 1.95,-0.781 0.57,-0.52 0.86,-1.196 0.86,-2.028 0,-1.148 -0.39,-2.113 -1.17,-2.89 -0.78,-0.781 -1.69,-1.172 -2.74,-1.172 l -13.43,0 c 2.08,-3.125 3.12,-6.93 3.12,-11.4102 0,-3.754 -0.7,-7.3985 -2.11,-10.9375 -1.41,-3.543 -3.38,-6.793 -5.94,-9.7618 -2.55,-2.9726 -5.52,-5.3437 -8.9,-7.1093 -3.38,-1.7735 -6.95,-2.6602 -10.7,-2.6602 z m 0,2.9688 c 4.06,0 7.63,1.5664 10.7,4.6914 3.07,3.1211 5.44,6.9453 7.11,11.4804 1.67,4.5313 2.5,8.7266 2.5,12.5784 0,3.129 -0.86,5.601 -2.58,7.422 -1.72,1.824 -4.15,2.738 -7.27,2.738 -4.27,0 -7.91,-1.434 -10.93,-4.301 -3.02,-2.863 -5.26,-6.4569 -6.72,-10.7772 -1.46,-4.3281 -2.19,-8.5195 -2.19,-12.582 0,-3.125 0.83,-5.7813 2.5,-7.9688 1.67,-2.1875 3.96,-3.2812 6.88,-3.2812"
         style="fill:#262626;fill-opacity:1;fill-rule:nonzero;stroke:none"
         id="path86"
         inkscape:connector-curvature="0" /><g
         id="g88"
         transform="scale(10,10)"><text
           transform="matrix(1,0,0,-1,202,7)"
           style="font-variant:normal;font-weight:normal;font-size:11px;font-family:Helvetica;-inkscape-font-specification:Helvetica;writing-mode:lr-tb;fill:#262626;fill-opacity:1;fill-rule:nonzero;stroke:none"
           id="text90"><tspan
             x="0"
             y="0"
             id="tspan92">/</tspan></text>
</g><path
         d="m 2080.63,68.75 c -3.33,0 -6.25,0.7813 -8.75,2.3398 -2.5,1.5665 -4.45,3.6758 -5.86,6.3321 -1.41,2.6562 -2.11,5.5469 -2.11,8.6679 0,3.4415 0.78,7.0352 2.34,10.7891 1.56,3.7461 3.67,7.1841 6.33,10.3121 2.65,3.125 5.67,5.625 9.06,7.5 3.39,1.872 6.85,2.809 10.39,2.809 l 27.66,0 c 0.73,0 1.38,-0.262 1.95,-0.781 0.57,-0.52 0.86,-1.196 0.86,-2.028 0,-1.148 -0.39,-2.113 -1.17,-2.89 -0.78,-0.781 -1.69,-1.172 -2.74,-1.172 l -13.43,0 c 2.08,-3.125 3.12,-6.93 3.12,-11.4102 0,-3.754 -0.7,-7.3985 -2.11,-10.9375 -1.41,-3.543 -3.38,-6.793 -5.94,-9.7618 -2.55,-2.9726 -5.52,-5.3437 -8.9,-7.1093 -3.38,-1.7735 -6.95,-2.6602 -10.7,-2.6602 z m 0,2.9688 c 4.06,0 7.63,1.5664 10.7,4.6914 3.07,3.1211 5.44,6.9453 7.11,11.4804 1.67,4.5313 2.5,8.7266 2.5,12.5784 0,3.129 -0.86,5.601 -2.58,7.422 -1.72,1.824 -4.15,2.738 -7.27,2.738 -4.27,0 -7.91,-1.434 -10.93,-4.301 -3.02,-2.863 -5.26,-6.4569 -6.72,-10.7772 -1.46,-4.3281 -2.19,-8.5195 -2.19,-12.582 0,-3.125 0.83,-5.7813 2.5,-7.9688 1.67,-2.1875 3.96,-3.2812 6.88,-3.2812"
         style="fill:#262626;fill-opacity:1;fill-rule:nonzero;stroke:none"
         id="path94"
         inkscape:connector-curvature="0" /><g
         id="g96"
         transform="scale(10,10)"><text
           transform="matrix(1,0,0,-1,213,2)"
           style="font-variant:normal;font-weight:normal;font-size:8.80000019px;font-family:Helvetica;-inkscape-font-specification:Helvetica;writing-mode:lr-tb;fill:#262626;fill-opacity:1;fill-rule:nonzero;stroke:none"
           id="text98"><tspan
             x="0"
             y="0"
             id="tspan100">y</tspan></text>
</g><path
         d="m 355,360 0,3430"
         style="fill:none;stroke:#262626;stroke-width:5;stroke-linecap:square;stroke-linejoin:round;stroke-miterlimit:10;stroke-dasharray:none;stroke-opacity:1"
         id="path102"
         inkscape:connector-curvature="0" /><path
         d="m 3785,360 0,3430"
         style="fill:none;stroke:#262626;stroke-width:5;stroke-linecap:square;stroke-linejoin:round;stroke-miterlimit:10;stroke-dasharray:none;stroke-opacity:1"
         id="path104"
         inkscape:connector-curvature="0" /><path
         d="m 355,360 34.301,0"
         style="fill:none;stroke:#262626;stroke-width:5;stroke-linecap:square;stroke-linejoin:round;stroke-miterlimit:10;stroke-dasharray:none;stroke-opacity:1"
         id="path106"
         inkscape:connector-curvature="0" /><path
         d="m 355,931.672 34.301,0"
         style="fill:none;stroke:#262626;stroke-width:5;stroke-linecap:square;stroke-linejoin:round;stroke-miterlimit:10;stroke-dasharray:none;stroke-opacity:1"
         id="path108"
         inkscape:connector-curvature="0" /><path
         d="m 355,1503.33 34.301,0"
         style="fill:none;stroke:#262626;stroke-width:5;stroke-linecap:square;stroke-linejoin:round;stroke-miterlimit:10;stroke-dasharray:none;stroke-opacity:1"
         id="path110"
         inkscape:connector-curvature="0" /><path
         d="m 355,2075 34.301,0"
         style="fill:none;stroke:#262626;stroke-width:5;stroke-linecap:square;stroke-linejoin:round;stroke-miterlimit:10;stroke-dasharray:none;stroke-opacity:1"
         id="path112"
         inkscape:connector-curvature="0" /><path
         d="m 355,2646.67 34.301,0"
         style="fill:none;stroke:#262626;stroke-width:5;stroke-linecap:square;stroke-linejoin:round;stroke-miterlimit:10;stroke-dasharray:none;stroke-opacity:1"
         id="path114"
         inkscape:connector-curvature="0" /><path
         d="m 355,3218.33 34.301,0"
         style="fill:none;stroke:#262626;stroke-width:5;stroke-linecap:square;stroke-linejoin:round;stroke-miterlimit:10;stroke-dasharray:none;stroke-opacity:1"
         id="path116"
         inkscape:connector-curvature="0" /><path
         d="m 355,3790 34.301,0"
         style="fill:none;stroke:#262626;stroke-width:5;stroke-linecap:square;stroke-linejoin:round;stroke-miterlimit:10;stroke-dasharray:none;stroke-opacity:1"
         id="path118"
         inkscape:connector-curvature="0" /><path
         d="m 3785,360 -34.3,0"
         style="fill:none;stroke:#262626;stroke-width:5;stroke-linecap:square;stroke-linejoin:round;stroke-miterlimit:10;stroke-dasharray:none;stroke-opacity:1"
         id="path120"
         inkscape:connector-curvature="0" /><path
         d="m 3785,931.672 -34.3,0"
         style="fill:none;stroke:#262626;stroke-width:5;stroke-linecap:square;stroke-linejoin:round;stroke-miterlimit:10;stroke-dasharray:none;stroke-opacity:1"
         id="path122"
         inkscape:connector-curvature="0" /><path
         d="m 3785,1503.33 -34.3,0"
         style="fill:none;stroke:#262626;stroke-width:5;stroke-linecap:square;stroke-linejoin:round;stroke-miterlimit:10;stroke-dasharray:none;stroke-opacity:1"
         id="path124"
         inkscape:connector-curvature="0" /><path
         d="m 3785,2075 -34.3,0"
         style="fill:none;stroke:#262626;stroke-width:5;stroke-linecap:square;stroke-linejoin:round;stroke-miterlimit:10;stroke-dasharray:none;stroke-opacity:1"
         id="path126"
         inkscape:connector-curvature="0" /><path
         d="m 3785,2646.67 -34.3,0"
         style="fill:none;stroke:#262626;stroke-width:5;stroke-linecap:square;stroke-linejoin:round;stroke-miterlimit:10;stroke-dasharray:none;stroke-opacity:1"
         id="path128"
         inkscape:connector-curvature="0" /><path
         d="m 3785,3218.33 -34.3,0"
         style="fill:none;stroke:#262626;stroke-width:5;stroke-linecap:square;stroke-linejoin:round;stroke-miterlimit:10;stroke-dasharray:none;stroke-opacity:1"
         id="path130"
         inkscape:connector-curvature="0" /><path
         d="m 3785,3790 -34.3,0"
         style="fill:none;stroke:#262626;stroke-width:5;stroke-linecap:square;stroke-linejoin:round;stroke-miterlimit:10;stroke-dasharray:none;stroke-opacity:1"
         id="path132"
         inkscape:connector-curvature="0" /><g
         id="g134"
         transform="scale(10,10)"><text
           transform="matrix(1,0,0,-1,25.5,32.5)"
           style="font-variant:normal;font-weight:normal;font-size:10px;font-family:Helvetica;-inkscape-font-specification:Helvetica;writing-mode:lr-tb;fill:#262626;fill-opacity:1;fill-rule:nonzero;stroke:none"
           id="text136"><tspan
             x="0"
             y="0"
             id="tspan138">0</tspan><tspan
             x="-8 -2.4400001 0.34"
             y="-57.166801"
             sodipodi:role="line"
             id="tspan140">0.2</tspan><tspan
             x="-8 -2.4400001 0.34"
             y="-114.3332"
             sodipodi:role="line"
             id="tspan142">0.4</tspan><tspan
             x="-8 -2.4400001 0.34"
             y="-171.5"
             sodipodi:role="line"
             id="tspan144">0.6</tspan><tspan
             x="-8 -2.4400001 0.34"
             y="-228.66679"
             sodipodi:role="line"
             id="tspan146">0.8</tspan><tspan
             x="0"
             y="-285.83319"
             id="tspan148">1</tspan><tspan
             x="-8 -2.4400001 0.34"
             y="-343"
             sodipodi:role="line"
             id="tspan150">1.2</tspan></text>
<text
           transform="matrix(0,1,1,0,8,194)"
           style="font-variant:normal;font-weight:normal;font-size:11px;font-family:Helvetica;-inkscape-font-specification:Helvetica;writing-mode:lr-tb;fill:#262626;fill-opacity:1;fill-rule:nonzero;stroke:none"
           id="text152"><tspan
             x="0 7.3369999 10.395"
             y="0"
             sodipodi:role="line"
             id="tspan154">K/K</tspan></text>
<text
           transform="matrix(0,1,1,0,13,213)"
           style="font-variant:normal;font-weight:normal;font-size:8.80000019px;font-family:Helvetica;-inkscape-font-specification:Helvetica;writing-mode:lr-tb;fill:#262626;fill-opacity:1;fill-rule:nonzero;stroke:none"
           id="text156"><tspan
             x="0 2.4463999"
             y="0"
             sodipodi:role="line"
             id="tspan158">Ic</tspan></text>
</g><path
         d="m 355,3218.33 2858.33,0 0,-2858.33"
         style="fill:none;stroke:#0072bd;stroke-width:5;stroke-linecap:butt;stroke-linejoin:round;stroke-miterlimit:10;stroke-dasharray:none;stroke-opacity:1"
         id="path160"
         inkscape:connector-curvature="0" /></g><path
       style="fill:#000000;fill-opacity:0.26751593"
       d="m 330.54494,112.1566 0,-35.233847 35.23385,0 35.23385,0 0,35.233847 0,35.23385 -35.23385,0 -35.23385,0 0,-35.23385 z"
       id="path4290"
       inkscape:connector-curvature="0"
       transform="matrix(0.8,0,0,-0.8,0,383)" /><path
       style="fill:#000000;fill-opacity:0.26751595"
       d="m 259.0014,112.1566 0,-35.233847 35.50281,0 35.50281,0 0,35.233847 0,35.23385 -35.50281,0 -35.50281,0 0,-35.23385 z"
       id="path5736"
       inkscape:connector-curvature="0"
       transform="matrix(0.8,0,0,-0.8,0,383)" /><path
       style="fill:#000000;fill-opacity:0.26751595"
       d="m 187.45787,112.1566 0,-35.233847 35.5028,0 35.50281,0 0,35.233847 0,35.23385 -35.50281,0 -35.5028,0 0,-35.23385 z"
       id="path5738"
       inkscape:connector-curvature="0"
       transform="matrix(0.8,0,0,-0.8,0,383)" /><path
       style="fill:#000000;fill-opacity:0.26751595"
       d="m 116.45225,112.1566 0,-35.233847 35.23385,0 35.23384,0 0,35.233847 0,35.23385 -35.23384,0 -35.23385,0 0,-35.23385 z"
       id="path5740"
       inkscape:connector-curvature="0"
       transform="matrix(0.8,0,0,-0.8,0,383)" /><path
       style="fill:#000000;fill-opacity:0.26751595"
       d="m 44.908708,112.1566 0,-35.233847 35.233848,0 35.233844,0 0,35.233847 0,35.23385 -35.233844,0 -35.233848,0 0,-35.23385 z"
       id="path5742"
       inkscape:connector-curvature="0"
       transform="matrix(0.8,0,0,-0.8,0,383)" /><path
       style="fill:#000000;fill-opacity:0.26751595"
       d="m 44.908708,183.70014 0,-35.23385 35.233848,0 35.233844,0 0,35.23385 0,35.23385 -35.233844,0 -35.233848,0 0,-35.23385 z"
       id="path5744"
       inkscape:connector-curvature="0"
       transform="matrix(0.8,0,0,-0.8,0,383)" /><path
       style="fill:#000000;fill-opacity:0.26751595"
       d="m 116.45225,183.70014 0,-35.23385 35.23385,0 35.23384,0 0,35.23385 0,35.23385 -35.23384,0 -35.23385,0 0,-35.23385 z"
       id="path5746"
       inkscape:connector-curvature="0"
       transform="matrix(0.8,0,0,-0.8,0,383)" /><path
       style="fill:#000000;fill-opacity:0.26751595"
       d="m 187.45787,183.70014 0,-35.23385 35.5028,0 35.50281,0 0,35.23385 0,35.23385 -35.50281,0 -35.5028,0 0,-35.23385 z"
       id="path5748"
       inkscape:connector-curvature="0"
       transform="matrix(0.8,0,0,-0.8,0,383)" /><path
       style="fill:#000000;fill-opacity:0.26751595"
       d="m 259.0014,183.70014 0,-35.23385 35.50281,0 35.50281,0 0,35.23385 0,35.23385 -35.50281,0 -35.50281,0 0,-35.23385 z"
       id="path5750"
       inkscape:connector-curvature="0"
       transform="matrix(0.8,0,0,-0.8,0,383)" /><path
       style="fill:#000000;fill-opacity:0.26751595"
       d="m 330.54494,183.70014 0,-35.23385 35.23385,0 35.23385,0 0,35.23385 0,35.23385 -35.23385,0 -35.23385,0 0,-35.23385 z"
       id="path5752"
       inkscape:connector-curvature="0"
       transform="matrix(0.8,0,0,-0.8,0,383)" /><path
       style="fill:#000000;fill-opacity:0.26751595"
       d="m 330.54494,255.24368 0,-35.23385 35.23385,0 35.23385,0 0,35.23385 0,35.23385 -35.23385,0 -35.23385,0 0,-35.23385 z"
       id="path5754"
       inkscape:connector-curvature="0"
       transform="matrix(0.8,0,0,-0.8,0,383)" /><path
       style="fill:#000000;fill-opacity:0.26751595"
       d="m 259.0014,255.24368 0,-35.23385 35.50281,0 35.50281,0 0,35.23385 0,35.23385 -35.50281,0 -35.50281,0 0,-35.23385 z"
       id="path5756"
       inkscape:connector-curvature="0"
       transform="matrix(0.8,0,0,-0.8,0,383)" /><path
       style="fill:#000000;fill-opacity:0.26751595"
       d="m 187.45787,255.24368 0,-35.23385 35.5028,0 35.50281,0 0,35.23385 0,35.23385 -35.50281,0 -35.5028,0 0,-35.23385 z"
       id="path5758"
       inkscape:connector-curvature="0"
       transform="matrix(0.8,0,0,-0.8,0,383)" /><path
       style="fill:#000000;fill-opacity:0.26751595"
       d="m 116.45225,255.24368 0,-35.23385 35.23385,0 35.23384,0 0,35.23385 0,35.23385 -35.23384,0 -35.23385,0 0,-35.23385 z"
       id="path5760"
       inkscape:connector-curvature="0"
       transform="matrix(0.8,0,0,-0.8,0,383)" /><path
       style="fill:#000000;fill-opacity:0.26751595"
       d="m 44.908708,255.24368 0,-35.23385 35.233848,0 35.233844,0 0,35.23385 0,35.23385 -35.233844,0 -35.233848,0 0,-35.23385 z"
       id="path5762"
       inkscape:connector-curvature="0"
       transform="matrix(0.8,0,0,-0.8,0,383)" /><path
       style="fill:#000000;fill-opacity:0.26751595"
       d="m 47.194874,361.6272 -2.286166,-0.20591 0,-34.85733 0,-34.85733 3.306436,-0.34559 c 1.81854,-0.19007 17.673772,-0.34559 35.233848,-0.34559 l 31.927408,0 0,35.50281 0,35.50281 -32.947678,-0.094 c -18.121226,-0.0517 -33.976457,-0.18664 -35.233848,-0.29989 z"
       id="path5764"
       inkscape:connector-curvature="0"
       transform="matrix(0.8,0,0,-0.8,0,383)" /><path
       style="fill:#000000;fill-opacity:0.26751595"
       d="m 116.45225,326.51826 0,-35.50281 35.23385,0 35.23384,0 0,35.50281 0,35.50281 -35.23384,0 -35.23385,0 0,-35.50281 z"
       id="path5766"
       inkscape:connector-curvature="0"
       transform="matrix(0.8,0,0,-0.8,0,383)" /><path
       style="fill:#000000;fill-opacity:0.26751595"
       d="m 187.70504,361.34867 c -0.14134,-0.36983 -0.19426,-16.28557 -0.1176,-35.36833 l 0.13939,-34.69593 35.23384,0 35.23385,0 0.13835,35.36833 0.13835,35.36833 -35.2546,0 c -27.70801,0 -35.30961,-0.14393 -35.51158,-0.6724 z"
       id="path5768"
       inkscape:connector-curvature="0"
       transform="matrix(0.8,0,0,-0.8,0,383)" /><path
       style="fill:#000000;fill-opacity:0.26751595"
       d="m 259.13202,326.65274 0.13835,-35.36833 35.23384,0 35.23385,0 0.13835,35.36833 0.13835,35.36833 -35.51055,0 -35.51054,0 0.13835,-35.36833 z"
       id="path5770"
       inkscape:connector-curvature="0"
       transform="matrix(0.8,0,0,-0.8,0,383)" /><path
       style="fill:#000000;fill-opacity:0.26751595"
       d="m 330.54494,326.51826 0,-35.50281 35.23385,0 35.23385,0 0,35.50281 0,35.50281 -35.23385,0 -35.23385,0 0,-35.50281 z"
       id="path5772"
       inkscape:connector-curvature="0"
       transform="matrix(0.8,0,0,-0.8,0,383)" /><path
       style="fill:#000000;fill-opacity:0.26751595"
       d="m 330.54494,397.79284 0,-35.23385 35.23385,0 35.23385,0 0,35.23385 0,35.23385 -35.23385,0 -35.23385,0 0,-35.23385 z"
       id="path5774"
       inkscape:connector-curvature="0"
       transform="matrix(0.8,0,0,-0.8,0,383)" /><path
       style="fill:#000000;fill-opacity:0.26751595"
       d="m 259.34997,430.2026 c -0.18657,-1.55325 -0.34132,-17.40848 -0.34389,-35.23385 l -0.005,-32.40976 35.50281,0 35.50281,0 0,31.92741 c 0,17.56008 -0.15552,33.41531 -0.34559,35.23385 l -0.34559,3.30644 -34.81333,0 -34.81333,0 -0.33921,-2.82409 z"
       id="path5776"
       inkscape:connector-curvature="0"
       transform="matrix(0.8,0,0,-0.8,0,383)" /><path
       style="fill:#000000;fill-opacity:0.26751595"
       d="m 187.74674,428.58883 c -0.1901,-2.44081 -0.27235,-18.23553 -0.18277,-35.09936 l 0.16286,-30.66152 35.36832,-0.13835 35.36833,-0.13835 -0.005,32.41363 c -0.003,17.8275 -0.15732,33.68447 -0.34389,35.23772 l -0.33921,2.82409 -34.84167,0 -34.84168,0 -0.34562,-4.43786 z"
       id="path5778"
       inkscape:connector-curvature="0"
       transform="matrix(0.8,0,0,-0.8,0,383)" /><path
       style="fill:#000000;fill-opacity:0.26751595"
       d="m 116.45225,397.79284 0,-35.23385 35.23385,0 35.23384,0 0,35.23385 0,35.23385 -35.23384,0 -35.23385,0 0,-35.23385 z"
       id="path5780"
       inkscape:connector-curvature="0"
       transform="matrix(0.8,0,0,-0.8,0,383)" /><path
       style="fill:#000000;fill-opacity:0.26751595"
       d="m 44.908708,398.13843 0,-34.88826 3.306436,-0.34559 c 1.81854,-0.19008 17.673772,-0.34559 35.233848,-0.34559 l 31.927408,0 0,35.23385 0,35.23385 -35.233844,0 -35.233848,0 0,-34.88826 z"
       id="path5782"
       inkscape:connector-curvature="0"
       transform="matrix(0.8,0,0,-0.8,0,383)" /><text
       xml:space="preserve"
       style="font-style:normal;font-weight:normal;font-size:32px;line-height:125%;font-family:sans-serif;letter-spacing:0px;word-spacing:0px;fill:#000000;fill-opacity:1;stroke:none;stroke-width:1px;stroke-linecap:butt;stroke-linejoin:miter;stroke-opacity:1"
       x="137.27753"
       y="-167.40112"
       id="text5784"
       sodipodi:linespacing="125%"
       transform="scale(1,-1)"><tspan
         sodipodi:role="line"
         id="tspan5786"
         x="137.27753"
         y="-167.40112">SAFE</tspan></text>
</g></svg>