<?xml version="1.0" encoding="UTF-8" standalone="no"?>
<!-- Created with Inkscape (http://www.inkscape.org/) -->

<svg
   xmlns:dc="http://purl.org/dc/elements/1.1/"
   xmlns:cc="http://creativecommons.org/ns#"
   xmlns:rdf="http://www.w3.org/1999/02/22-rdf-syntax-ns#"
   xmlns:svg="http://www.w3.org/2000/svg"
   xmlns="http://www.w3.org/2000/svg"
   xmlns:sodipodi="http://sodipodi.sourceforge.net/DTD/sodipodi-0.dtd"
   xmlns:inkscape="http://www.inkscape.org/namespaces/inkscape"
   id="svg5981"
   version="1.1"
   inkscape:version="0.91 r13725"
   xml:space="preserve"
   width="482.5"
   height="476.25"
   viewBox="0 0 482.5 476.25"
   sodipodi:docname="strip-yield-fad-modified.svg"><metadata
     id="metadata5987"><rdf:RDF><cc:Work
         rdf:about=""><dc:format>image/svg+xml</dc:format><dc:type
           rdf:resource="http://purl.org/dc/dcmitype/StillImage" /><dc:title></dc:title></cc:Work></rdf:RDF></metadata><defs
     id="defs5985" /><sodipodi:namedview
     pagecolor="#ffffff"
     bordercolor="#666666"
     borderopacity="1"
     objecttolerance="10"
     gridtolerance="10"
     guidetolerance="10"
     inkscape:pageopacity="0"
     inkscape:pageshadow="2"
     inkscape:window-width="1900"
     inkscape:window-height="1159"
     id="namedview5983"
     showgrid="false"
     inkscape:zoom="2.0094488"
     inkscape:cx="241.25"
     inkscape:cy="238.125"
     inkscape:window-x="64"
     inkscape:window-y="0"
     inkscape:window-maximized="0"
     inkscape:current-layer="g5989" /><g
     id="g5989"
     inkscape:groupmode="layer"
     inkscape:label="ink_ext_XXXXXX"
     transform="matrix(1.25,0,0,-1.25,0,476.25)"><g
       id="g5991"
       transform="scale(0.1,0.1)"><path
         d="m 0,0 4770,0 0,4080 L 0,4080 0,0 Z"
         style="fill:#ffffff;fill-opacity:1;fill-rule:nonzero;stroke:none"
         id="path5993"
         inkscape:connector-curvature="0" /><path
         d="m 0,0 4770,0 0,4080 L 0,4080 0,0 Z"
         style="fill:#ffffff;fill-opacity:1;fill-rule:nonzero;stroke:none"
         id="path5995"
         inkscape:connector-curvature="0" /><path
         d="m 357.5,340 3425,0 0,3425 -3425,0 0,-3425 z"
         style="fill:#ffffff;fill-opacity:1;fill-rule:nonzero;stroke:none"
         id="path5997"
         inkscape:connector-curvature="0" /><path
         d="m 357.5,340 0,3425"
         style="fill:none;stroke:#dfdfdf;stroke-width:5;stroke-linecap:butt;stroke-linejoin:round;stroke-miterlimit:10;stroke-dasharray:none;stroke-opacity:1"
         id="path5999"
         inkscape:connector-curvature="0" /><path
         d="m 928.328,340 0,3425"
         style="fill:none;stroke:#dfdfdf;stroke-width:5;stroke-linecap:butt;stroke-linejoin:round;stroke-miterlimit:10;stroke-dasharray:none;stroke-opacity:1"
         id="path6001"
         inkscape:connector-curvature="0" /><path
         d="m 1499.17,340 0,3425"
         style="fill:none;stroke:#dfdfdf;stroke-width:5;stroke-linecap:butt;stroke-linejoin:round;stroke-miterlimit:10;stroke-dasharray:none;stroke-opacity:1"
         id="path6003"
         inkscape:connector-curvature="0" /><path
         d="m 2070,340 0,3425"
         style="fill:none;stroke:#dfdfdf;stroke-width:5;stroke-linecap:butt;stroke-linejoin:round;stroke-miterlimit:10;stroke-dasharray:none;stroke-opacity:1"
         id="path6005"
         inkscape:connector-curvature="0" /><path
         d="m 2640.83,340 0,3425"
         style="fill:none;stroke:#dfdfdf;stroke-width:5;stroke-linecap:butt;stroke-linejoin:round;stroke-miterlimit:10;stroke-dasharray:none;stroke-opacity:1"
         id="path6007"
         inkscape:connector-curvature="0" /><path
         d="m 3211.67,340 0,3425"
         style="fill:none;stroke:#dfdfdf;stroke-width:5;stroke-linecap:butt;stroke-linejoin:round;stroke-miterlimit:10;stroke-dasharray:none;stroke-opacity:1"
         id="path6009"
         inkscape:connector-curvature="0" /><path
         d="m 3782.5,340 0,3425"
         style="fill:none;stroke:#dfdfdf;stroke-width:5;stroke-linecap:butt;stroke-linejoin:round;stroke-miterlimit:10;stroke-dasharray:none;stroke-opacity:1"
         id="path6011"
         inkscape:connector-curvature="0" /><path
         d="m 3782.5,340 -3425,0"
         style="fill:none;stroke:#dfdfdf;stroke-width:5;stroke-linecap:butt;stroke-linejoin:round;stroke-miterlimit:10;stroke-dasharray:none;stroke-opacity:1"
         id="path6013"
         inkscape:connector-curvature="0" /><path
         d="m 3782.5,910.832 -3425,0"
         style="fill:none;stroke:#dfdfdf;stroke-width:5;stroke-linecap:butt;stroke-linejoin:round;stroke-miterlimit:10;stroke-dasharray:none;stroke-opacity:1"
         id="path6015"
         inkscape:connector-curvature="0" /><path
         d="m 3782.5,1481.67 -3425,0"
         style="fill:none;stroke:#dfdfdf;stroke-width:5;stroke-linecap:butt;stroke-linejoin:round;stroke-miterlimit:10;stroke-dasharray:none;stroke-opacity:1"
         id="path6017"
         inkscape:connector-curvature="0" /><path
         d="m 3782.5,2052.5 -3425,0"
         style="fill:none;stroke:#dfdfdf;stroke-width:5;stroke-linecap:butt;stroke-linejoin:round;stroke-miterlimit:10;stroke-dasharray:none;stroke-opacity:1"
         id="path6019"
         inkscape:connector-curvature="0" /><path
         d="m 3782.5,2623.33 -3425,0"
         style="fill:none;stroke:#dfdfdf;stroke-width:5;stroke-linecap:butt;stroke-linejoin:round;stroke-miterlimit:10;stroke-dasharray:none;stroke-opacity:1"
         id="path6021"
         inkscape:connector-curvature="0" /><path
         d="m 3782.5,3194.17 -3425,0"
         style="fill:none;stroke:#dfdfdf;stroke-width:5;stroke-linecap:butt;stroke-linejoin:round;stroke-miterlimit:10;stroke-dasharray:none;stroke-opacity:1"
         id="path6023"
         inkscape:connector-curvature="0" /><path
         d="m 3782.5,3765 -3425,0"
         style="fill:none;stroke:#dfdfdf;stroke-width:5;stroke-linecap:butt;stroke-linejoin:round;stroke-miterlimit:10;stroke-dasharray:none;stroke-opacity:1"
         id="path6025"
         inkscape:connector-curvature="0" /><path
         d="m 357.5,340 3425,0"
         style="fill:none;stroke:#262626;stroke-width:5;stroke-linecap:square;stroke-linejoin:round;stroke-miterlimit:10;stroke-dasharray:none;stroke-opacity:1"
         id="path6027"
         inkscape:connector-curvature="0" /><path
         d="m 357.5,3765 3425,0"
         style="fill:none;stroke:#262626;stroke-width:5;stroke-linecap:square;stroke-linejoin:round;stroke-miterlimit:10;stroke-dasharray:none;stroke-opacity:1"
         id="path6029"
         inkscape:connector-curvature="0" /><path
         d="m 357.5,340 0,34.25"
         style="fill:none;stroke:#262626;stroke-width:5;stroke-linecap:square;stroke-linejoin:round;stroke-miterlimit:10;stroke-dasharray:none;stroke-opacity:1"
         id="path6031"
         inkscape:connector-curvature="0" /><path
         d="m 928.328,340 0,34.25"
         style="fill:none;stroke:#262626;stroke-width:5;stroke-linecap:square;stroke-linejoin:round;stroke-miterlimit:10;stroke-dasharray:none;stroke-opacity:1"
         id="path6033"
         inkscape:connector-curvature="0" /><path
         d="m 1499.17,340 0,34.25"
         style="fill:none;stroke:#262626;stroke-width:5;stroke-linecap:square;stroke-linejoin:round;stroke-miterlimit:10;stroke-dasharray:none;stroke-opacity:1"
         id="path6035"
         inkscape:connector-curvature="0" /><path
         d="m 2070,340 0,34.25"
         style="fill:none;stroke:#262626;stroke-width:5;stroke-linecap:square;stroke-linejoin:round;stroke-miterlimit:10;stroke-dasharray:none;stroke-opacity:1"
         id="path6037"
         inkscape:connector-curvature="0" /><path
         d="m 2640.83,340 0,34.25"
         style="fill:none;stroke:#262626;stroke-width:5;stroke-linecap:square;stroke-linejoin:round;stroke-miterlimit:10;stroke-dasharray:none;stroke-opacity:1"
         id="path6039"
         inkscape:connector-curvature="0" /><path
         d="m 3211.67,340 0,34.25"
         style="fill:none;stroke:#262626;stroke-width:5;stroke-linecap:square;stroke-linejoin:round;stroke-miterlimit:10;stroke-dasharray:none;stroke-opacity:1"
         id="path6041"
         inkscape:connector-curvature="0" /><path
         d="m 3782.5,340 0,34.25"
         style="fill:none;stroke:#262626;stroke-width:5;stroke-linecap:square;stroke-linejoin:round;stroke-miterlimit:10;stroke-dasharray:none;stroke-opacity:1"
         id="path6043"
         inkscape:connector-curvature="0" /><path
         d="m 357.5,3765 0,-34.25"
         style="fill:none;stroke:#262626;stroke-width:5;stroke-linecap:square;stroke-linejoin:round;stroke-miterlimit:10;stroke-dasharray:none;stroke-opacity:1"
         id="path6045"
         inkscape:connector-curvature="0" /><path
         d="m 928.328,3765 0,-34.25"
         style="fill:none;stroke:#262626;stroke-width:5;stroke-linecap:square;stroke-linejoin:round;stroke-miterlimit:10;stroke-dasharray:none;stroke-opacity:1"
         id="path6047"
         inkscape:connector-curvature="0" /><path
         d="m 1499.17,3765 0,-34.25"
         style="fill:none;stroke:#262626;stroke-width:5;stroke-linecap:square;stroke-linejoin:round;stroke-miterlimit:10;stroke-dasharray:none;stroke-opacity:1"
         id="path6049"
         inkscape:connector-curvature="0" /><path
         d="m 2070,3765 0,-34.25"
         style="fill:none;stroke:#262626;stroke-width:5;stroke-linecap:square;stroke-linejoin:round;stroke-miterlimit:10;stroke-dasharray:none;stroke-opacity:1"
         id="path6051"
         inkscape:connector-curvature="0" /><path
         d="m 2640.83,3765 0,-34.25"
         style="fill:none;stroke:#262626;stroke-width:5;stroke-linecap:square;stroke-linejoin:round;stroke-miterlimit:10;stroke-dasharray:none;stroke-opacity:1"
         id="path6053"
         inkscape:connector-curvature="0" /><path
         d="m 3211.67,3765 0,-34.25"
         style="fill:none;stroke:#262626;stroke-width:5;stroke-linecap:square;stroke-linejoin:round;stroke-miterlimit:10;stroke-dasharray:none;stroke-opacity:1"
         id="path6055"
         inkscape:connector-curvature="0" /><path
         d="m 3782.5,3765 0,-34.25"
         style="fill:none;stroke:#262626;stroke-width:5;stroke-linecap:square;stroke-linejoin:round;stroke-miterlimit:10;stroke-dasharray:none;stroke-opacity:1"
         id="path6057"
         inkscape:connector-curvature="0" /><g
         id="g6059"
         transform="scale(10,10)"><text
           transform="matrix(1,0,0,-1,32.75,20)"
           style="font-variant:normal;font-weight:normal;font-size:10px;font-family:Helvetica;-inkscape-font-specification:Helvetica;writing-mode:lr-tb;fill:#262626;fill-opacity:1;fill-rule:nonzero;stroke:none"
           id="text6061"><tspan
             x="0 53.083199 58.6432 61.423199 110.1668 115.7268 118.5068 167.25 172.81 175.59 224.33321 229.8932 232.6732 285.41681 338.5 344.06 346.84"
             y="0"
             sodipodi:role="line"
             id="tspan6063">00.20.40.60.811.2</tspan></text>
</g><path
         d="m 2040.63,48.75 c -3.33,0 -6.25,0.7813 -8.75,2.3398 -2.5,1.5665 -4.45,3.6758 -5.86,6.3321 -1.41,2.6562 -2.11,5.5469 -2.11,8.6679 0,3.4415 0.78,7.0352 2.34,10.7891 1.56,3.7461 3.67,7.1836 6.33,10.3125 2.65,3.125 5.67,5.625 9.06,7.5 3.39,1.8711 6.85,2.8086 10.39,2.8086 l 27.66,0 c 0.73,0 1.38,-0.2617 1.95,-0.7812 0.57,-0.5196 0.86,-1.1954 0.86,-2.0274 0,-1.1484 -0.39,-2.1133 -1.17,-2.8906 -0.78,-0.7813 -1.69,-1.1719 -2.74,-1.1719 l -13.43,0 c 2.08,-3.125 3.12,-6.9297 3.12,-11.4101 0,-3.754 -0.7,-7.3985 -2.11,-10.9375 -1.41,-3.543 -3.38,-6.793 -5.94,-9.7618 -2.55,-2.9726 -5.52,-5.3437 -8.9,-7.1093 -3.38,-1.7735 -6.95,-2.6602 -10.7,-2.6602 z m 0,2.9688 c 4.06,0 7.63,1.5664 10.7,4.6914 3.07,3.1211 5.44,6.9453 7.11,11.4804 1.67,4.5313 2.5,8.7266 2.5,12.5782 0,3.1289 -0.86,5.6015 -2.58,7.4218 -1.72,1.8242 -4.15,2.7383 -7.27,2.7383 -4.27,0 -7.91,-1.4336 -10.93,-4.3008 -3.02,-2.8633 -5.26,-6.457 -6.72,-10.7773 -1.46,-4.3281 -2.19,-8.5195 -2.19,-12.582 0,-3.125 0.83,-5.7813 2.5,-7.9688 1.67,-2.1875 3.96,-3.2812 6.88,-3.2812"
         style="fill:#262626;fill-opacity:1;fill-rule:nonzero;stroke:none"
         id="path6065"
         inkscape:connector-curvature="0" /><g
         id="g6067"
         transform="scale(10,10)"><text
           transform="matrix(1,0,0,-1,209,0)"
           style="font-variant:normal;font-weight:normal;font-size:8.80000019px;font-family:Helvetica;-inkscape-font-specification:Helvetica;writing-mode:lr-tb;fill:#262626;fill-opacity:1;fill-rule:nonzero;stroke:none"
           id="text6069"><tspan
             x="0"
             y="0"
             id="tspan6071">r</tspan></text>
</g><path
         d="m 357.5,340 0,3425"
         style="fill:none;stroke:#262626;stroke-width:5;stroke-linecap:square;stroke-linejoin:round;stroke-miterlimit:10;stroke-dasharray:none;stroke-opacity:1"
         id="path6073"
         inkscape:connector-curvature="0" /><path
         d="m 3782.5,340 0,3425"
         style="fill:none;stroke:#262626;stroke-width:5;stroke-linecap:square;stroke-linejoin:round;stroke-miterlimit:10;stroke-dasharray:none;stroke-opacity:1"
         id="path6075"
         inkscape:connector-curvature="0" /><path
         d="m 357.5,340 34.25,0"
         style="fill:none;stroke:#262626;stroke-width:5;stroke-linecap:square;stroke-linejoin:round;stroke-miterlimit:10;stroke-dasharray:none;stroke-opacity:1"
         id="path6077"
         inkscape:connector-curvature="0" /><path
         d="m 357.5,910.832 34.25,0"
         style="fill:none;stroke:#262626;stroke-width:5;stroke-linecap:square;stroke-linejoin:round;stroke-miterlimit:10;stroke-dasharray:none;stroke-opacity:1"
         id="path6079"
         inkscape:connector-curvature="0" /><path
         d="m 357.5,1481.67 34.25,0"
         style="fill:none;stroke:#262626;stroke-width:5;stroke-linecap:square;stroke-linejoin:round;stroke-miterlimit:10;stroke-dasharray:none;stroke-opacity:1"
         id="path6081"
         inkscape:connector-curvature="0" /><path
         d="m 357.5,2052.5 34.25,0"
         style="fill:none;stroke:#262626;stroke-width:5;stroke-linecap:square;stroke-linejoin:round;stroke-miterlimit:10;stroke-dasharray:none;stroke-opacity:1"
         id="path6083"
         inkscape:connector-curvature="0" /><path
         d="m 357.5,2623.33 34.25,0"
         style="fill:none;stroke:#262626;stroke-width:5;stroke-linecap:square;stroke-linejoin:round;stroke-miterlimit:10;stroke-dasharray:none;stroke-opacity:1"
         id="path6085"
         inkscape:connector-curvature="0" /><path
         d="m 357.5,3194.17 34.25,0"
         style="fill:none;stroke:#262626;stroke-width:5;stroke-linecap:square;stroke-linejoin:round;stroke-miterlimit:10;stroke-dasharray:none;stroke-opacity:1"
         id="path6087"
         inkscape:connector-curvature="0" /><path
         d="m 357.5,3765 34.25,0"
         style="fill:none;stroke:#262626;stroke-width:5;stroke-linecap:square;stroke-linejoin:round;stroke-miterlimit:10;stroke-dasharray:none;stroke-opacity:1"
         id="path6089"
         inkscape:connector-curvature="0" /><path
         d="m 3782.5,340 -34.25,0"
         style="fill:none;stroke:#262626;stroke-width:5;stroke-linecap:square;stroke-linejoin:round;stroke-miterlimit:10;stroke-dasharray:none;stroke-opacity:1"
         id="path6091"
         inkscape:connector-curvature="0" /><path
         d="m 3782.5,910.832 -34.25,0"
         style="fill:none;stroke:#262626;stroke-width:5;stroke-linecap:square;stroke-linejoin:round;stroke-miterlimit:10;stroke-dasharray:none;stroke-opacity:1"
         id="path6093"
         inkscape:connector-curvature="0" /><path
         d="m 3782.5,1481.67 -34.25,0"
         style="fill:none;stroke:#262626;stroke-width:5;stroke-linecap:square;stroke-linejoin:round;stroke-miterlimit:10;stroke-dasharray:none;stroke-opacity:1"
         id="path6095"
         inkscape:connector-curvature="0" /><path
         d="m 3782.5,2052.5 -34.25,0"
         style="fill:none;stroke:#262626;stroke-width:5;stroke-linecap:square;stroke-linejoin:round;stroke-miterlimit:10;stroke-dasharray:none;stroke-opacity:1"
         id="path6097"
         inkscape:connector-curvature="0" /><path
         d="m 3782.5,2623.33 -34.25,0"
         style="fill:none;stroke:#262626;stroke-width:5;stroke-linecap:square;stroke-linejoin:round;stroke-miterlimit:10;stroke-dasharray:none;stroke-opacity:1"
         id="path6099"
         inkscape:connector-curvature="0" /><path
         d="m 3782.5,3194.17 -34.25,0"
         style="fill:none;stroke:#262626;stroke-width:5;stroke-linecap:square;stroke-linejoin:round;stroke-miterlimit:10;stroke-dasharray:none;stroke-opacity:1"
         id="path6101"
         inkscape:connector-curvature="0" /><path
         d="m 3782.5,3765 -34.25,0"
         style="fill:none;stroke:#262626;stroke-width:5;stroke-linecap:square;stroke-linejoin:round;stroke-miterlimit:10;stroke-dasharray:none;stroke-opacity:1"
         id="path6103"
         inkscape:connector-curvature="0" /><g
         id="g6105"
         transform="scale(10,10)"><text
           transform="matrix(1,0,0,-1,25.75,30.5)"
           style="font-variant:normal;font-weight:normal;font-size:10px;font-family:Helvetica;-inkscape-font-specification:Helvetica;writing-mode:lr-tb;fill:#262626;fill-opacity:1;fill-rule:nonzero;stroke:none"
           id="text6107"><tspan
             x="0"
             y="0"
             id="tspan6109">0</tspan><tspan
             x="-8 -2.4400001 0.34"
             y="-57.083199"
             sodipodi:role="line"
             id="tspan6111">0.2</tspan><tspan
             x="-8 -2.4400001 0.34"
             y="-114.1668"
             sodipodi:role="line"
             id="tspan6113">0.4</tspan><tspan
             x="-8 -2.4400001 0.34"
             y="-171.25"
             sodipodi:role="line"
             id="tspan6115">0.6</tspan><tspan
             x="-8 -2.4400001 0.34"
             y="-228.33321"
             sodipodi:role="line"
             id="tspan6117">0.8</tspan><tspan
             x="0"
             y="-285.41681"
             id="tspan6119">1</tspan><tspan
             x="-8 -2.4400001 0.34"
             y="-342.5"
             sodipodi:role="line"
             id="tspan6121">1.2</tspan></text>
<text
           transform="matrix(0,1,1,0,8,199)"
           style="font-variant:normal;font-weight:normal;font-size:11px;font-family:Helvetica;-inkscape-font-specification:Helvetica;writing-mode:lr-tb;fill:#262626;fill-opacity:1;fill-rule:nonzero;stroke:none"
           id="text6123"><tspan
             x="0"
             y="0"
             id="tspan6125">K</tspan></text>
<text
           transform="matrix(0,1,1,0,13,207)"
           style="font-variant:normal;font-weight:normal;font-size:8.80000019px;font-family:Helvetica;-inkscape-font-specification:Helvetica;writing-mode:lr-tb;fill:#262626;fill-opacity:1;fill-rule:nonzero;stroke:none"
           id="text6127"><tspan
             x="0"
             y="0"
             id="tspan6129">r</tspan></text>
</g><path
         d="m 386.332,3194.11 28.828,-0.18 28.828,-0.3 28.832,-0.42 28.828,-0.54 28.832,-0.66 28.829,-0.78 28.832,-0.9 28.828,-1.03 28.832,-1.14 28.828,-1.27 28.832,-1.39 28.828,-1.51 28.832,-1.64 28.828,-1.77 28.832,-1.88 28.828,-2.02 28.832,-2.14 28.829,-2.27 28.832,-2.4 28.828,-2.54 28.832,-2.66 28.828,-2.79 28.83,-2.94 28.83,-3.06 28.83,-3.21 28.83,-3.34 28.83,-3.48 28.83,-3.63 28.83,-3.77 28.83,-3.91 28.83,-4.07 28.83,-4.21 28.83,-4.37 28.83,-4.52 28.83,-4.68 28.83,-4.84 28.83,-5 28.83,-5.17 28.83,-5.34 28.83,-5.51 28.83,-5.68 28.83,-5.87 28.83,-6.05 28.83,-6.23 28.83,-6.43 28.83,-6.62 28.83,-6.82 28.83,-7.03 28.83,-7.24 28.83,-7.46 28.83,-7.68 28.83,-7.9 28.83,-8.14 28.83,-8.39 28.83,-8.63 28.83,-8.9 28.83,-9.15 28.83,-9.44 28.83,-9.72 28.83,-10.01 28.83,-10.32 28.83,-10.64 28.83,-10.97 28.83,-11.32 28.83,-11.67 28.83,-12.05 28.83,-12.45 28.83,-12.86 28.83,-13.29 28.83,-13.75 28.83,-14.23 28.83,-14.73 28.83,-15.28 28.83,-15.85 28.83,-16.45 28.83,-17.11 28.83,-17.8 28.83,-18.55 28.83,-19.36 28.83,-20.24 28.83,-21.19 28.83,-22.24 28.83,-23.39 28.83,-24.66 28.83,-26.09 28.83,-27.7 28.83,-29.53 28.83,-31.64 28.83,-34.1 28.83,-37.03 28.83,-40.6 28.83,-45.04 28.83,-50.82 28.83,-58.67 28.83,-70.23 28.83,-89.44 28.83,-130.49 28.83,-1022.808 0,-518.852"
         style="fill:none;stroke:#000000;stroke-width:5;stroke-linecap:butt;stroke-linejoin:round;stroke-miterlimit:10;stroke-dasharray:none;stroke-opacity:1"
         id="path6131"
         inkscape:connector-curvature="0" /></g><path
       style="fill:#000000;fill-opacity:0.26751595"
       d="m 45.375392,112.66771 0,-35.084246 8.833268,0.0067 c 14.569612,0.01098 54.12393,1.837914 59.71787,2.758243 l 1.61736,0.266092 0,33.568753 0,33.56875 -35.084251,0 -35.084247,0 0,-35.08425 z"
       id="path6133"
       inkscape:connector-curvature="0"
       transform="matrix(0.8,0,0,-0.8,0,381)" /><path
       style="fill:#000000;fill-opacity:0.26751595"
       d="m 116.53918,114.16066 c 0,-18.644232 0.19212,-33.591303 0.43175,-33.591303 1.77511,0 22.89334,2.285076 32.41308,3.507223 11.03668,1.416892 35.05561,5.149817 36.95043,5.742687 0.81626,0.255398 0.87089,2.080924 0.87089,29.102593 l 0,28.8301 -35.33307,0 -35.33308,0 0,-33.5913 z"
       id="path6135"
       inkscape:connector-curvature="0"
       transform="matrix(0.8,0,0,-0.8,0,381)" /><path
       style="fill:#000000;fill-opacity:0.26751595"
       d="m 187.70298,118.90076 0,-28.851191 1.61736,0.291426 c 17.59258,3.169946 43.84562,9.695725 61.95729,15.400875 l 7.09149,2.23381 0,19.88814 0,19.88814 -35.33307,0 -35.33307,0 0,-28.8512 z"
       id="path6137"
       inkscape:connector-curvature="0"
       transform="matrix(0.8,0,0,-0.8,0,381)" /><path
       style="fill:#000000;fill-opacity:0.26751595"
       d="m 259.36442,128.06129 0,-19.69066 1.11971,0.34024 c 0.61584,0.18714 5.0387,1.80194 9.82857,3.58846 20.69759,7.71974 38.16885,16.07912 53.62167,25.65608 l 5.59855,3.46973 0,3.16341 0,3.16341 -35.08425,0 -35.08425,0 0,-19.69067 z"
       id="path6141"
       inkscape:connector-curvature="0"
       transform="matrix(0.8,0,0,-0.8,0,381)" /><path
       style="fill:#000000;fill-opacity:0.26751595"
       d="m 332.65824,147.8832 c 1.30836,-0.10285 3.32384,-0.10161 4.47884,0.003 1.15499,0.10437 0.0845,0.18852 -2.37885,0.187 -2.46336,-0.002 -3.40836,-0.0869 -2.09999,-0.18976 z"
       id="path6143"
       inkscape:connector-curvature="0"
       transform="matrix(0.8,0,0,-0.8,0,381)" /><path
       style="fill:#000000;fill-opacity:0.26751595"
       d="m 332.89205,147.92002 c 0.34213,-0.13805 0.90198,-0.13805 1.24412,0 0.34213,0.13806 0.0622,0.25101 -0.62206,0.25101 -0.68427,0 -0.9642,-0.11295 -0.62206,-0.25101 z"
       id="path6145"
       inkscape:connector-curvature="0"
       transform="matrix(0.8,0,0,-0.8,0,381)" /><path
       style="fill:#000000;fill-opacity:0.26751595"
       d="m 330.52821,144.98552 c 0,-2.08575 0.15306,-2.67215 0.62206,-2.38325 1.72985,1.0656 6.84268,4.75625 6.84268,4.93934 0,0.11569 -1.67957,0.21035 -3.73237,0.21035 l -3.73237,0 0,-2.76644 z"
       id="path6147"
       inkscape:connector-curvature="0"
       transform="matrix(0.8,0,0,-0.8,0,381)" /><path
       style="fill:#000000;fill-opacity:0.26751595"
       d="m 330.52821,184.08033 0,-35.33307 4.67661,0 4.67661,0 5.15196,4.0868 c 2.83357,2.24774 8.53349,7.45439 12.66648,11.57034 11.53733,11.48974 18.89697,21.34375 25.62096,34.30455 3.11454,6.00341 7.37125,16.05813 8.18595,19.33592 l 0.34015,1.36853 -30.65936,0 -30.65936,0 0,-35.33307 z"
       id="path6149"
       inkscape:connector-curvature="0"
       transform="matrix(0.8,0,0,-0.8,0,381)" /><path
       style="fill:#000000;fill-opacity:0.26751595"
       d="m 330.52821,255.24412 0,-35.33307 30.81424,0 30.81424,0 0.76901,2.36383 c 0.42295,1.30011 1.56829,5.94691 2.5452,10.32622 l 1.77619,7.96238 0.71979,23.63832 c 0.39588,13.00108 0.72415,24.25417 0.7295,25.00686 l 0.01,1.36853 -34.08895,0 -34.08895,0 0,-35.33307 z"
       id="path6151"
       inkscape:connector-curvature="0"
       transform="matrix(0.8,0,0,-0.8,0,381)" /><path
       style="fill:#000000;fill-opacity:0.26751595"
       d="m 330.52821,326.65674 0,-35.08425 34.08895,0 c 26.93512,0 34.09063,0.13055 34.09697,0.62206 0.004,0.34214 0.44869,15.51421 0.98728,33.71572 0.5386,18.20151 0.98287,33.70949 0.98728,34.46218 l 0.008,1.36854 -35.08425,0 -35.08425,0 0,-35.08425 z"
       id="path6153"
       inkscape:connector-curvature="0"
       transform="matrix(0.8,0,0,-0.8,0,381)" /><path
       style="fill:#000000;fill-opacity:0.26751595"
       d="m 259.36442,184.08033 0,-35.33307 35.08425,0 35.08425,0 0,35.33307 0,35.33307 -35.08425,0 -35.08425,0 0,-35.33307 z"
       id="path6155"
       inkscape:connector-curvature="0"
       transform="matrix(0.8,0,0,-0.8,0,381)" /><path
       style="fill:#000000;fill-opacity:0.26751595"
       d="m 187.70298,184.08033 0,-35.33307 35.33307,0 35.33307,0 0,35.33307 0,35.33307 -35.33307,0 -35.33307,0 0,-35.33307 z"
       id="path6157"
       inkscape:connector-curvature="0"
       transform="matrix(0.8,0,0,-0.8,0,381)" /><path
       style="fill:#000000;fill-opacity:0.26751595"
       d="m 259.36442,255.24412 0,-35.33307 35.08425,0 35.08425,0 0,35.33307 0,35.33307 -35.08425,0 -35.08425,0 0,-35.33307 z"
       id="path6159"
       inkscape:connector-curvature="0"
       transform="matrix(0.8,0,0,-0.8,0,381)" /><path
       style="fill:#000000;fill-opacity:0.26751595"
       d="m 259.36442,326.65674 0,-35.08425 35.08425,0 35.08425,0 0,35.08425 0,35.08425 -35.08425,0 -35.08425,0 0,-35.08425 z"
       id="path6161"
       inkscape:connector-curvature="0"
       transform="matrix(0.8,0,0,-0.8,0,381)" /><path
       style="fill:#000000;fill-opacity:0.26751595"
       d="m 259.36442,398.06936 0,-35.33307 35.08425,0 35.08425,0 0,35.33307 0,35.33307 -35.08425,0 -35.08425,0 0,-35.33307 z"
       id="path6163"
       inkscape:connector-curvature="0"
       transform="matrix(0.8,0,0,-0.8,0,381)" /><path
       style="fill:#000000;fill-opacity:0.26751595"
       d="m 330.52821,398.06936 0,-35.33307 35.08425,0 35.08425,0 0,35.33307 0,35.33307 -35.08425,0 -35.08425,0 0,-35.33307 z"
       id="path6165"
       inkscape:connector-curvature="0"
       transform="matrix(0.8,0,0,-0.8,0,381)" /><path
       style="fill:#000000;fill-opacity:0.26751595"
       d="m 187.70298,255.24412 0,-35.33307 35.33307,0 35.33307,0 0,35.33307 0,35.33307 -35.33307,0 -35.33307,0 0,-35.33307 z"
       id="path6167"
       inkscape:connector-curvature="0"
       transform="matrix(0.8,0,0,-0.8,0,381)" /><path
       style="fill:#000000;fill-opacity:0.26751595"
       d="m 187.70298,326.65674 0,-35.08425 35.33307,0 35.33307,0 0,35.08425 0,35.08425 -35.33307,0 -35.33307,0 0,-35.08425 z"
       id="path6169"
       inkscape:connector-curvature="0"
       transform="matrix(0.8,0,0,-0.8,0,381)" /><path
       style="fill:#000000;fill-opacity:0.26751595"
       d="m 187.70298,398.06936 0,-35.33307 35.33307,0 35.33307,0 0,35.33307 0,35.33307 -35.33307,0 -35.33307,0 0,-35.33307 z"
       id="path6171"
       inkscape:connector-curvature="0"
       transform="matrix(0.8,0,0,-0.8,0,381)" /><path
       style="fill:#000000;fill-opacity:0.26751595"
       d="m 116.53918,398.06936 0,-35.33307 35.33308,0 35.33307,0 -0.003,31.97394 c -0.002,17.58567 -0.1463,33.48555 -0.32079,35.33307 l -0.3173,3.35913 -35.01229,0 -35.01229,0 0,-35.33307 z"
       id="path6173"
       inkscape:connector-curvature="0"
       transform="matrix(0.8,0,0,-0.8,0,381)" /><path
       style="fill:#000000;fill-opacity:0.26751595"
       d="m 116.53918,326.65674 0,-35.08425 35.33308,0 35.33307,0 0,35.08425 0,35.08425 -35.33307,0 -35.33308,0 0,-35.08425 z"
       id="path6175"
       inkscape:connector-curvature="0"
       transform="matrix(0.8,0,0,-0.8,0,381)" /><path
       style="fill:#000000;fill-opacity:0.26751595"
       d="m 116.53918,255.24078 0,-35.33641 35.20866,0.12775 35.20866,0.12775 0.12776,35.20866 0.12775,35.20866 -35.33641,0 -35.33642,0 0,-35.33641 z"
       id="path6177"
       inkscape:connector-curvature="0"
       transform="matrix(0.8,0,0,-0.8,0,381)" /><path
       style="fill:#000000;fill-opacity:0.26751595"
       d="m 116.53918,184.08033 0,-35.33307 35.33308,0 35.33307,0 0,35.33307 0,35.33307 -35.33307,0 -35.33308,0 0,-35.33307 z"
       id="path6179"
       inkscape:connector-curvature="0"
       transform="matrix(0.8,0,0,-0.8,0,381)" /><path
       style="fill:#000000;fill-opacity:0.26751595"
       d="m 47.4904,219.04902 -2.115008,-0.1905 0,-35.05563 0,-35.05563 35.084247,0 35.084251,0 0,35.33307 0,35.33307 -32.969243,-0.0869 C 64.441565,219.27863 48.653654,219.15379 47.4904,219.04902 Z"
       id="path6181"
       inkscape:connector-curvature="0"
       transform="matrix(0.8,0,0,-0.8,0,381)" /><path
       style="fill:#000000;fill-opacity:0.26751595"
       d="m 45.375392,255.56384 0,-35.01335 3.058894,-0.31972 c 1.682392,-0.17585 17.470303,-0.31972 35.084248,-0.31972 l 32.025356,0 0,35.33307 0,35.33307 -35.084251,0 -35.084247,0 0,-35.01335 z"
       id="path6183"
       inkscape:connector-curvature="0"
       transform="matrix(0.8,0,0,-0.8,0,381)" /><path
       style="fill:#000000;fill-opacity:0.26751595"
       d="m 45.375392,326.65674 0,-35.08425 35.084247,0 35.084251,0 0,35.08425 0,35.08425 -35.084251,0 -35.084247,0 0,-35.08425 z"
       id="path6185"
       inkscape:connector-curvature="0"
       transform="matrix(0.8,0,0,-0.8,0,381)" /><path
       style="fill:#000000;fill-opacity:0.26751595"
       d="m 45.375392,398.06936 0,-35.33307 35.084247,0 35.084251,0 0,35.33307 0,35.33307 -35.084251,0 -35.084247,0 0,-35.33307 z"
       id="path6187"
       inkscape:connector-curvature="0"
       transform="matrix(0.8,0,0,-0.8,0,381)" /><text
       xml:space="preserve"
       style="font-style:normal;font-weight:normal;font-size:32px;line-height:125%;font-family:sans-serif;letter-spacing:0px;word-spacing:0px;fill:#000000;fill-opacity:1;stroke:none;stroke-width:1px;stroke-linecap:butt;stroke-linejoin:miter;stroke-opacity:1"
       x="127.39812"
       y="-161.63637"
       id="text6189"
       sodipodi:linespacing="125%"
       transform="scale(1,-1)"><tspan
         sodipodi:role="line"
         id="tspan6191"
         x="127.39812"
         y="-161.63637">SAFE</tspan></text>
</g></svg>